<?xml version="1.0" encoding="UTF-8"?>
<svg xmlns="http://www.w3.org/2000/svg" baseProfile="tiny-ps" version="1.2" viewBox="0 0 375 375">
  <title>MelissaTheGhostDr</title>
  <desc>The icon logo for MelissaTheGhostDr.</desc>
  <g id="Bkgs">
    <rect fill="#ffffff" width="375" height="375"/>
    <path fill="#e3e4e5" d="M 38.1,120 H 337 v 134.6 H 38.1 Z"/>
  </g>
  <g id="Logo" fill="#454d51">
    <g id="Rect">
      <path d="M 37.5,119.7 V 255.3 H 337.5 V 119.7 Z m 3,3 H 334.5 V 252.3 H 40.5 Z"/>
    </g>
    <g id="MelissaRect">
      <path d="m 48.6,130 v 69.2 H 326.4 V 130 Z m 169.1,14.4 c 8,0 13.1,4.3 13.1,11.3 h -4.5 c 0,-4.3 -3.3,-7 -8.6,-7 -5.2,0 -8.3,2.2 -8.3,5.6 0,3 2.3,4.9 9.3,6.6 9.3,2.2 12.8,5.4 12.8,10.7 0,6.3 -5.1,10.2 -13,10.2 -8.6,0 -14.1,-4.7 -14.1,-11.8 h 4.5 c 0.1,4.7 4,7.4 9.6,7.4 5.1,0 8.3,-2.1 8.3,-5.6 0,-3.4 -2.7,-5.2 -9.2,-6.7 -8.8,-2.1 -12.8,-5.2 -12.8,-10.8 0,-6 5,-9.9 12.9,-9.9 z m 37.2,0 c 8,0 13.1,4.3 13.1,11.3 h -4.4 c -0.1,-4.3 -3.4,-7 -8.7,-7 -5.2,0 -8.3,2.2 -8.3,5.6 0,3 2.3,4.9 9.3,6.6 9.3,2.2 12.8,5.4 12.8,10.7 0,6.3 -5.1,10.2 -13,10.2 -8.6,0 -14.1,-4.7 -14.1,-11.8 h 4.5 c 0.1,4.7 4,7.4 9.6,7.4 5.1,0 8.3,-2.1 8.3,-5.6 0,-3.4 -2.7,-5.2 -9.2,-6.7 C 246,163 242,159.9 242,154.3 c 0,-6 5,-9.9 12.9,-9.9 z m -186,0.7 h 4.2 l 14.1,21.3 14.1,-21.3 H 105.5 v 36 H 101 v -27.5 L 89,171.5 h -3.7 l -11.9,-18 v 27.6 h -4.5 z m 51.1,0 h 21.8 v 4.2 H 124.5 v 11.4 h 16 v 4.1 h -16 v 12.1 h 17.9 v 4.2 H 120 Z m 34.9,0 h 4.5 v 31.7 h 17.5 v 4.3 h -22 z m 32.8,0 h 4.5 v 36 h -4.5 z m 103.7,0 h 4.2 l 14.8,36 h -4.7 l -3.4,-8.2 h -17.6 l -3.3,8.2 h -4.8 z m 2.1,6.3 -7,17.3 h 14.1 z"/>
    </g>
    <g id="TheGhostDr">
      <path d="m 49.1,211.7 v 7.2 h 8.1 V 238.5 h 7.7 V 218.9 H 73 v -7.2 z"/>
      <path d="M 76.9,211.7 V 238.5 h 7.8 v -10.1 h 8.2 V 238.5 h 7.7 v -26.8 h -7.7 v 9.6 h -8.2 v -9.6 z"/>
      <path d="M 106.3,211.7 V 238.5 h 18.8 v -6.3 H 114 v -4.1 h 9.7 v -6.2 H 114 V 218 h 10.7 v -6.3 z"/>
      <path d="m 142.3,211.2 c -8.4,0 -14.2,5.7 -14.2,13.9 0,8.3 5.8,14 14.3,14 9.2,0 15,-6.7 14.2,-16.1 h -15.5 v 5.4 h 7.3 c -0.7,2.3 -2.9,3.8 -5.9,3.8 -4.3,0 -6.8,-3 -6.8,-7.1 0,-4.2 2.7,-7.1 6.7,-7.1 2.4,0 4.4,1.1 5.4,2.8 h 8.3 c -1.6,-5.9 -7,-9.6 -13.8,-9.6 z"/>
      <path d="M 160.7,211.7 V 238.5 H 168.5 v -10.1 h 8.2 V 238.5 h 7.7 v -26.8 h -7.7 v 9.6 H 168.5 v -9.6 z"/>
      <path d="m 203.1,211.2 c -8.6,0 -14.6,5.7 -14.6,13.9 0,8.2 6,14 14.6,14 8.5,0 14.5,-5.8 14.5,-14 0,-8.2 -6,-14 -14.5,-13.9 z m 0,7.1 c 3.9,0 6.7,2.8 6.7,6.8 0,4 -2.8,6.8 -6.7,6.8 -4,0 -6.8,-2.8 -6.8,-6.8 0.02,-4.1 2.8,-6.8 6.8,-6.8 z"/>
      <path d="m 230.7,211.2 c -6.3,0 -10.2,3.1 -10.2,8.1 0,4.6 3,7.3 9,8.5 3.3,0.6 4.8,1.6 4.8,3.2 0,1.3 -1.1,2.1 -3,2.1 -2.2,0 -3.5,-1.2 -3.5,-3.3 h -7.5 c 0,5.8 4.2,9.3 11.1,9.3 6.7,0 10.6,-3.2 10.6,-8.4 0,-4.5 -2.8,-7.1 -9.3,-8.5 -3.5,-0.8 -4.8,-1.6 -4.8,-3 0,-1.3 1.2,-2.1 3,-2.1 2.1,0 3.4,1.1 3.4,3.1 H 241.5 c 0,-5.5 -4.2,-9 -10.8,-9 z"/>
      <path d="m 244.6,211.7 v 7.2 h 8.1 V 238.5 h 7.7 V 218.9 H 268.5 v -7.2 z"/>
      <path d="M 272.4,211.7 V 238.5 h 11.4 c 8.6,0 14.4,-5.3 14.4,-13.4 0,-8 -5.8,-13.4 -14.4,-13.4 z m 7.8,7 h 3.4 c 4.1,0 6.7,2.5 6.7,6.4 0,4 -2.6,6.5 -6.7,6.5 h -3.4 z"/>
      <path d="M 302.2,211.7 V 238.5 H 310 v -7.6 h 2.9 l 3.8,7.6 h 8.7 l -4.9,-9 c 2.8,-1.6 4.4,-4.4 4.4,-8.2 0,-5.9 -4,-9.6 -10.5,-9.6 z M 309.8,218 h 3.6 c 2.4,0 3.8,1.2 3.8,3.4 0,2.1 -1.4,3.3 -3.8,3.3 h -3.6 z"/>
    </g>
    <g id="Trademark">
      <path d="m 342.7,120.3 h -1 v 2.6 h -0.8 v -2.6 h -1 v -0.6 h 2.8 z m 3.6,2.6 h -0.8 v -2.1 l -0.6,1.4 h -0.6 l -0.6,-1.4 v 2.1 h -0.8 v -3.2 h 1 l 0.7,1.6 0.7,-1.6 h 1 z"/>
    </g>
  </g>
</svg>
